# xmcd
#
# Track frame offsets: 
#        150
#        18165
#        38704
#        57677
#        82825
#        117319
#        142230
#        156923
#        177046
#        178053
#        188554
#        194179
#        203982
#        214869
#        219953
#        232732
#        233126
#        243700
#        252800
#        263060
#
# Disc length: 3660 seconds
#
# Revision: 2
# Processed by: cddbd v1.5.2PL0 Copyright (c) Steve Scherf et al.
# Submitted via: ExactAudioCopy v1.1
#
DISCID=1f0e4a14
DTITLE=Alexis Korner's Blues Incorporated - Blues Incorporated At The 
DTITLE=Cavern
DYEAR=1964
DGENRE=Blues
TTITLE0=Overdrive (live) (mono)
TTITLE1=Whoa Baby (live) (mono)
TTITLE2=Every Day I Have The Blues (live) (mono)
TTITLE3=Hoochie Coochie Man (live) (mono)
TTITLE4=Herbie's Tune (live) (mono)
TTITLE5=Little Bitty Gal Blues (live) (mono)
TTITLE6=Well All Right, O.K., You Win (live) (mono)
TTITLE7=Kansas City (live) (mono)
TTITLE8=Announcement (BBC 11-64 Rhythm and Blues) (mono)
TTITLE9=Overdrive (BBC 11-64 Rhythm and Blues) (mono)
TTITLE10=Brief Interview (BBC 11-64 Rhythm and Blues) (mono)
TTITLE11=I Need Your Lovin' (BBC 11-64 Rhythm and Blues) (mono)
TTITLE12=Turn On Your Lovelight (BBC 11-64 Rhythm and Blues) (mono)
TTITLE13=Brief Interview (BBC 11-64 Rhythm and Blues) (mono)
TTITLE14=Please, Please, Please (BBC 11-64 Rhythm and Blues) (mono)
TTITLE15=Announcement (BBC 11-64 Rhythm and Blues) (mono)
TTITLE16=Roberta (BBC 11-64 Rhythm and Blues) (mono)
TTITLE17=Every Day I Have The Blues (BBC 11-64 Rhythm and Blues) (mono)
TTITLE18=I Need Your Lovin' (mono)
TTITLE19=Please, Please, Please (mono)
EXTD=
EXTT0=
EXTT1=
EXTT2=
EXTT3=
EXTT4=
EXTT5=
EXTT6=
EXTT7=
EXTT8=
EXTT9=
EXTT10=
EXTT11=
EXTT12=
EXTT13=
EXTT14=
EXTT15=
EXTT16=
EXTT17=
EXTT18=
EXTT19=
PLAYORDER=
